<svg width="52" height="53" viewBox="0 0 52 53" fill="none" xmlns="http://www.w3.org/2000/svg">
<circle cx="26" cy="26.5049" r="26" fill="#F4F0EC"/>
<path d="M35.3445 33.9603C34.5429 33.1527 32.6013 31.974 31.6593 31.499C30.4326 30.8811 30.3317 30.8306 29.3675 31.5469C28.7243 32.025 28.2967 32.452 27.5441 32.2915C26.7914 32.131 25.1558 31.2259 23.7236 29.7984C22.2914 28.3708 21.3338 26.6879 21.1727 25.9378C21.0117 25.1876 21.4458 24.7651 21.9194 24.1205C22.5867 23.2119 22.5362 23.0605 21.9658 21.8338C21.521 20.8798 20.308 18.9566 19.4972 18.159C18.6299 17.3024 18.6299 17.4538 18.0711 17.686C17.6162 17.8774 17.1797 18.1101 16.7672 18.3811C15.9594 18.9177 15.5112 19.3634 15.1977 20.0333C14.8842 20.7031 14.7433 22.2735 16.3623 25.2144C17.9813 28.1553 19.1171 29.659 21.468 32.0033C23.819 34.3475 25.6268 35.6079 28.2695 37.09C31.5387 38.9208 32.7927 38.564 33.4646 38.251C34.1365 37.938 34.5843 37.4938 35.1219 36.6862C35.3936 36.2744 35.6268 35.8384 35.8186 35.3838C36.0513 34.827 36.2027 34.827 35.3445 33.9603Z" stroke="#CDA274" stroke-width="2" stroke-miterlimit="10"/>
</svg>
