<svg width="18" height="18" viewBox="0 0 18 18" fill="none" xmlns="http://www.w3.org/2000/svg">
<path d="M8.86397 4.60742C6.48897 4.60742 4.59639 6.53711 4.59639 8.875C4.59639 11.25 6.48897 13.1426 8.86397 13.1426C11.2019 13.1426 13.1316 11.25 13.1316 8.875C13.1316 6.53711 11.2019 4.60742 8.86397 4.60742ZM8.86397 11.6582C7.34249 11.6582 6.08077 10.4336 6.08077 8.875C6.08077 7.35352 7.30538 6.12891 8.86397 6.12891C10.3855 6.12891 11.6101 7.35352 11.6101 8.875C11.6101 10.4336 10.3855 11.6582 8.86397 11.6582ZM14.2819 4.45898C14.2819 3.90234 13.8366 3.45703 13.28 3.45703C12.7233 3.45703 12.278 3.90234 12.278 4.45898C12.278 5.01562 12.7233 5.46094 13.28 5.46094C13.8366 5.46094 14.2819 5.01562 14.2819 4.45898ZM17.1023 5.46094C17.028 4.125 16.7312 2.9375 15.7663 1.97266C14.8015 1.00781 13.614 0.710938 12.278 0.636719C10.905 0.5625 6.78585 0.5625 5.4128 0.636719C4.07686 0.710938 2.92647 1.00781 1.92452 1.97266C0.959676 2.9375 0.662801 4.125 0.588582 5.46094C0.514363 6.83398 0.514363 10.9531 0.588582 12.3262C0.662801 13.6621 0.959676 14.8125 1.92452 15.8145C2.92647 16.7793 4.07686 17.0762 5.4128 17.1504C6.78585 17.2246 10.905 17.2246 12.278 17.1504C13.614 17.0762 14.8015 16.7793 15.7663 15.8145C16.7312 14.8125 17.028 13.6621 17.1023 12.3262C17.1765 10.9531 17.1765 6.83398 17.1023 5.46094ZM15.321 13.7734C15.0612 14.5156 14.4675 15.0723 13.7624 15.3691C12.6491 15.8145 10.0515 15.7031 8.86397 15.7031C7.63936 15.7031 5.04171 15.8145 3.96554 15.3691C3.22335 15.0723 2.66671 14.5156 2.36983 13.7734C1.92452 12.6973 2.03585 10.0996 2.03585 8.875C2.03585 7.6875 1.92452 5.08984 2.36983 3.97656C2.66671 3.27148 3.22335 2.71484 3.96554 2.41797C5.04171 1.97266 7.63936 2.08398 8.86397 2.08398C10.0515 2.08398 12.6491 1.97266 13.7624 2.41797C14.4675 2.67773 15.0241 3.27148 15.321 3.97656C15.7663 5.08984 15.655 7.6875 15.655 8.875C15.655 10.0996 15.7663 12.6973 15.321 13.7734Z" fill="#292F36"/>
</svg>
