<svg width="17" height="17" viewBox="0 0 17 17" fill="none" xmlns="http://www.w3.org/2000/svg">
<path d="M3.80155 16.478V5.96631H0.532016V16.478H3.80155ZM2.1492 4.56006C3.20389 4.56006 4.04764 3.68115 4.04764 2.62646C4.04764 1.60693 3.20389 0.763184 2.1492 0.763184C1.12967 0.763184 0.285922 1.60693 0.285922 2.62646C0.285922 3.68115 1.12967 4.56006 2.1492 4.56006ZM16.0008 16.478H16.0359V10.7124C16.0359 7.8999 15.4031 5.72021 12.0984 5.72021C10.5164 5.72021 9.4617 6.59912 9.00467 7.40771H8.96952V5.96631H5.84061V16.478H9.11014V11.2749C9.11014 9.90381 9.35623 8.60303 11.0437 8.60303C12.7312 8.60303 12.7664 10.1499 12.7664 11.3804V16.478H16.0008Z" fill="#292F36"/>
</svg>
