<svg width="19" height="16" viewBox="0 0 19 16" fill="none" xmlns="http://www.w3.org/2000/svg">
<path d="M16.485 4.07178C17.1881 3.54443 17.8209 2.91162 18.3131 2.17334C17.6803 2.45459 16.942 2.66553 16.2037 2.73584C16.9772 2.27881 17.5397 1.57568 17.8209 0.696777C17.1178 1.11865 16.3092 1.43506 15.5006 1.61084C14.7975 0.872559 13.8483 0.450684 12.7936 0.450684C10.7545 0.450684 9.10218 2.10303 9.10218 4.14209C9.10218 4.42334 9.13734 4.70459 9.20765 4.98584C6.14906 4.81006 3.40687 3.3335 1.57874 1.11865C1.26234 1.646 1.08656 2.27881 1.08656 2.98193C1.08656 4.24756 1.71937 5.37256 2.7389 6.04053C2.14124 6.00537 1.54359 5.86475 1.0514 5.5835V5.61865C1.0514 7.41162 2.31702 8.88818 4.00452 9.23975C3.72327 9.31006 3.37171 9.38037 3.05531 9.38037C2.80921 9.38037 2.59827 9.34521 2.35218 9.31006C2.80921 10.7866 4.18031 11.8413 5.79749 11.8765C4.53187 12.8608 2.94984 13.4585 1.22718 13.4585C0.910774 13.4585 0.629524 13.4233 0.348274 13.3882C1.96546 14.4429 3.89906 15.0405 6.00843 15.0405C12.7936 15.0405 16.485 9.45068 16.485 4.56396C16.485 4.38818 16.485 4.24756 16.485 4.07178Z" fill="#292F36"/>
</svg>
