<svg width="52" height="53" viewBox="0 0 52 53" fill="none" xmlns="http://www.w3.org/2000/svg">
<circle cx="26" cy="26.5049" r="26" fill="#F4F0EC"/>
<path d="M36 27.0049C36 21.2062 31.2987 16.5049 25.5 16.5049C19.7013 16.5049 15 21.2062 15 27.0049C15 32.8036 19.7013 37.5049 25.5 37.5049C31.2987 37.5049 36 32.8036 36 27.0049Z" stroke="#CDA274" stroke-width="2" stroke-miterlimit="10"/>
<path d="M35.4475 22.8359C34.6349 22.841 34.7148 24.3488 33.7025 23.6374C33.3265 23.3738 33.0953 22.9906 32.6233 22.874C32.2109 22.7723 31.7885 22.8781 31.3812 22.9489C30.9183 23.0293 30.3693 23.0654 30.0182 23.4181C29.6787 23.7575 29.4991 24.213 29.1379 24.5544C28.4392 25.216 28.1442 25.9382 28.5965 26.8735C29.0316 27.7727 29.9418 28.2608 30.9238 28.1967C31.8887 28.132 32.8909 27.5692 32.8631 28.9794C32.853 29.4781 32.9567 29.8241 33.109 30.2878C33.2501 30.7152 33.2405 31.1295 33.2729 31.5707C33.3326 32.3951 33.4834 33.3193 33.8902 34.0475L34.6491 32.9707C34.7427 32.8374 34.9385 32.6506 34.985 32.4933C35.0675 32.215 34.9051 31.7366 34.8864 31.4246C34.8676 31.1127 34.8767 30.7967 34.8292 30.4847C34.7624 30.0475 34.5054 29.6379 34.47 29.2058C34.4047 28.4012 34.5509 27.759 33.9347 27.0862C33.3397 26.4374 32.4675 26.2817 31.6342 26.4135C31.2142 26.4796 29.5239 26.7514 30.2024 25.786C30.3364 25.5962 30.5707 25.4404 30.7215 25.2598C30.8525 25.1025 30.9663 24.8135 31.1201 24.6908C31.2739 24.5682 31.9802 24.4272 32.1826 24.4898C32.385 24.5524 32.596 24.846 32.7715 24.9763C33.0959 25.2221 33.4744 25.3855 33.875 25.4527C34.5661 25.5544 36.0111 25.1504 35.9999 24.2588C35.9979 23.8313 35.6033 23.2359 35.4475 22.8359ZM27.4475 30.1722C27.1778 29.0302 25.6352 28.6486 24.8035 28.0292C24.3254 27.673 23.8999 27.1229 23.272 27.0781C22.9826 27.0572 22.7402 27.1203 22.4534 27.0455C22.1903 26.9773 21.9839 26.8348 21.7036 26.872C21.1799 26.9412 20.8495 27.504 20.2869 27.4277C19.7532 27.3554 19.2032 26.7275 19.0818 26.216C18.926 25.5585 19.443 25.3453 19.997 25.2868C20.2282 25.2623 20.4878 25.2359 20.7099 25.3209C21.0023 25.4303 21.1405 25.7183 21.403 25.8639C21.8953 26.1351 21.995 25.7015 21.9196 25.2618C21.8068 24.6033 21.6752 24.3346 22.2591 23.8817C22.6638 23.5692 23.0099 23.3433 22.9451 22.7819C22.9067 22.4522 22.7271 22.3031 22.8946 21.9748C23.0215 21.7249 23.3701 21.4995 23.5973 21.3504C24.1837 20.9657 26.1093 20.9942 25.3226 19.9173C25.0913 19.6013 24.6648 19.0364 24.2601 18.959C23.7541 18.8629 23.5295 19.4308 23.1769 19.6812C22.8126 19.9402 22.1033 20.2344 21.7385 19.8339C21.2477 19.2949 22.0638 19.1178 22.2444 18.7417C22.425 18.3657 21.826 17.6547 21.5052 17.4746L19.997 19.1758C19.9537 19.4608 19.9688 19.7516 20.0414 20.0304C20.1139 20.3092 20.2424 20.5702 20.419 20.7972C20.719 21.1855 21.1966 21.3102 21.2184 21.8405C21.2396 22.3494 21.1607 22.6099 20.8298 22.9677C20.6866 23.1204 20.5854 23.3371 20.4397 23.4801C20.2611 23.6547 20.3274 23.6013 20.0486 23.6491C19.5245 23.7382 19.0782 23.8756 18.5718 24.016C17.7279 24.2506 17.65 22.8639 17.2655 22.3198L16.0006 23.3473C15.9869 23.5158 16.208 23.8257 16.2682 24.0089C16.6138 25.0557 17.311 25.8654 17.7613 26.8669C18.2353 27.9275 19.5083 27.6333 20.0704 28.5626C20.5693 29.387 20.0365 30.4308 20.4099 31.2939C20.6811 31.9203 21.3206 32.0572 21.7618 32.5152C22.2125 32.9778 22.2029 33.6109 22.2717 34.2129C22.3493 34.921 22.4753 35.6229 22.6487 36.3137C22.7099 36.5524 22.766 36.8679 22.9285 37.0648C23.0398 37.2002 23.4217 37.3167 23.2674 37.3615C23.483 37.3971 23.867 37.5997 24.0466 37.4511C24.2834 37.2557 24.2201 36.6541 24.2611 36.3824C24.384 35.5732 24.7868 34.7819 25.3302 34.1763C25.867 33.5788 26.6026 33.1743 27.0559 32.4969C27.4976 31.8363 27.6307 30.9453 27.4475 30.1722ZM25.7582 31.5117C25.4546 32.0567 24.7787 32.4216 24.3441 32.8547C24.2262 32.9722 23.9752 33.3793 23.8275 33.2913C23.7218 33.2282 23.6858 32.7 23.6469 32.5788C23.4459 31.9689 23.0622 31.4365 22.5485 31.0547C22.3901 30.9341 21.9975 30.7773 21.907 30.6119C21.8058 30.4323 21.8968 30.0084 21.9004 29.8129C21.9059 29.528 21.7769 29.0542 21.8468 28.7951C21.9277 28.4964 21.7719 28.6766 22.0375 28.6175C22.1776 28.586 22.7564 28.6883 22.931 28.7249C23.2082 28.7829 23.361 28.9565 23.5796 29.132C24.1543 29.5956 24.7873 29.9544 25.4313 30.3096C25.9302 30.5875 26.0769 30.9391 25.7582 31.5117ZM22.2368 17.4898C22.4766 17.7255 22.7023 18.0043 23.06 18.0278C23.3985 18.0507 23.7177 17.8664 24.0132 18.098C24.341 18.3524 24.5773 18.6746 25.0124 18.754C25.4334 18.8308 25.8791 18.5835 25.9833 18.1504C26.0845 17.7377 25.8665 17.2888 25.8533 16.8746C25.8533 16.8171 25.8842 16.5616 25.8447 16.5183C25.8154 16.4858 25.5705 16.5224 25.533 16.5234C25.2588 16.5316 24.9853 16.5506 24.7124 16.5804C23.7176 16.6887 22.7434 16.9398 21.8194 17.326C21.9424 17.4115 22.0967 17.4456 22.2368 17.4898ZM30.936 20.3489C31.3655 20.3489 31.8016 20.1555 31.663 19.6557C31.5466 19.2369 31.3483 18.7825 30.8657 19.0084C30.5585 19.1519 30.1234 19.5173 30.0875 19.8797C30.0465 20.2908 30.6496 20.3489 30.936 20.3489ZM30.5929 22.5356C31.0316 22.7997 31.6822 22.6756 32.0131 22.2985C32.2717 22.0033 32.4239 21.4908 32.8889 21.4914C33.0936 21.4909 33.2903 21.5715 33.4363 21.7158C33.6286 21.9158 33.5906 22.1036 33.6316 22.3539C33.7232 22.9163 34.3227 22.386 34.4791 22.1682C34.5803 22.0262 34.7174 21.8155 34.6713 21.6308C34.6288 21.4583 34.4285 21.2746 34.3394 21.1163C34.0794 20.6583 33.8654 20.1255 33.4758 19.7555C33.1009 19.3992 32.64 19.4405 32.2843 19.8104C31.9929 20.1158 31.6544 20.3575 31.4551 20.729C31.3144 20.9901 31.1561 21.1148 30.8712 21.1824C30.7144 21.2196 30.5353 21.2333 30.4037 21.3392C30.0374 21.6293 30.2459 22.326 30.5929 22.5356Z" fill="#CDA274"/>
</svg>
